<svg xmlns="http://www.w3.org/2000/svg" viewBox="0 0 24 24">

  <!-- white background -->
  <circle cx="12" cy="12" r="12" fill="#ffffff"></circle>

  <!-- gradient -->
  <defs>
    <linearGradient id="purpleGrad" x1="0" y1="0" x2="1" y2="1">
      <stop offset="0%" stop-color="#c084fc"></stop>
      <stop offset="50%" stop-color="#8b5cf6"></stop>
      <stop offset="100%" stop-color="#4c1d95"></stop>
    </linearGradient>
  </defs>

  <!-- scaled + centered icon -->
  <g transform="translate(12 12) scale(0.78) translate(-12 -12)" fill="none" stroke="url(#purpleGrad)" stroke-width="1.8" stroke-linecap="round" stroke-linejoin="round">

    <path d="M14.504 8.522l-1.758-4.032a.814.814 0 0 0-1.492 0l-1.759 4.032c-.19.436-.537.784-.973.973l-4.032 1.759a.814.814 0 0 0 0 1.492l4.033 1.758c.436.19.784.538.973.974l1.759 4.033a.814.814 0 0 0 1.492 0l1.758-4.033c.19-.436.538-.784.974-.974l4.033-1.758a.814.814 0 0 0 0-1.492l-4.033-1.759a1.88 1.88 0 0 1-.974-.973"></path>

    <path d="M3 3l2 2"></path>
    <path d="M21 3l-2 2"></path>
    <path d="M3 21l2-2"></path>
    <path d="M21 21l-2-2"></path>

  </g>

</svg>